<svg id="Layer_1" data-name="Layer 1" xmlns="http://www.w3.org/2000/svg" xmlns:xlink="http://www.w3.org/1999/xlink" viewBox="0 0 1154.79 319.53">
  <defs>
    <linearGradient id="Orchid" x1="43.5" y1="399.9" x2="1006.5" y2="399.9" gradientUnits="userSpaceOnUse">
      <stop offset="0" stop-color="#ff7bac"/>
      <stop offset="0.22" stop-color="#ff7bac" stop-opacity="0.76"/>
      <stop offset="0.6" stop-color="#ff7bac" stop-opacity="0.36"/>
      <stop offset="0.87" stop-color="#ff7bac" stop-opacity="0.1"/>
      <stop offset="1" stop-color="#ff7bac" stop-opacity="0"/>
    </linearGradient>
    <linearGradient id="Sky" x1="998.77" y1="313.09" x2="1144.08" y2="313.09" gradientUnits="userSpaceOnUse">
      <stop offset="0" stop-color="#cce0f4"/>
      <stop offset="0.06" stop-color="#c3dcf2"/>
      <stop offset="0.17" stop-color="#a9d2ee"/>
      <stop offset="0.31" stop-color="#80c2e7"/>
      <stop offset="0.46" stop-color="#47acde"/>
      <stop offset="0.57" stop-color="#1e9cd7"/>
      <stop offset="0.87" stop-color="#0075be"/>
      <stop offset="0.99" stop-color="#005b97"/>
    </linearGradient>
  </defs>
  <title>logo</title>
  <path d="M997.5,288.5c-18.37,47.53-51.16,113.2-102,120-86.59,11.58-140.14-159.1-234-152-92,6.95-111.17,176.09-196,178-85.44,1.92-119.82-168.42-214-171-54.95-1.51-102.71,54.85-138,112l-70,150,79-41c35.29-57.15,83.05-113.51,138-112,94.18,2.58,128.56,172.92,214,171,84.83-1.91,104-171,196-178,93.86-7.1,147.41,163.58,234,152,50.84-6.8,83.63-72.47,102-120" transform="translate(-42.42 -224.48)" style="stroke: #000;stroke-miterlimit: 10;fill: url(#Orchid)"/>
  <path d="M781.5,607.5" transform="translate(-42.42 -224.48)" style="fill: #fff;stroke: #000;stroke-miterlimit: 10"/>
  <g>
    <path d="M998.77,288.13a90.29,90.29,0,0,1,11.93-44.43c3.52-6.14,8.06-12.09,14.5-15,5-2.27,10.62-2.5,16.09-2.62,13.51-.31,27.8,0,39.33,7.09,6.43,3.93,11.52,9.69,16.36,15.47a461.19,461.19,0,0,1,47.1,67.71c-27.36-1.22-51.75,16.5-71.78,35.17s-39.38,39.89-65.31,48.69" transform="translate(-42.42 -224.48)" style="fill: url(#Sky)"/>
    <path d="M1000.27,288.13c.24-18,5.51-40,18.69-53.18,7.06-7,16.29-7.35,25.72-7.45,8.87-.09,17.93.22,26.43,3,9.34,3,16.25,9.27,22.56,16.55s12.22,14.82,18,22.5a469.72,469.72,0,0,1,31.15,47.57l1.3-2.26c-59.32-1.83-86.41,66-137.49,83.91-1.81.64-1,3.54.8,2.9,25-8.76,43.64-27.95,62.44-45.76,20.32-19.24,44.68-39,74.25-38.05a1.51,1.51,0,0,0,1.29-2.26A469.3,469.3,0,0,0,1118,273.18q-7.12-9.81-14.74-19.25c-5.16-6.38-10.32-13.06-16.69-18.3-11.42-9.39-25.89-11.19-40.21-11.14-7.15,0-14.92-.21-21.59,2.74-5.26,2.33-9.3,6.54-12.54,11.19-10,14.35-14.75,32.36-15,49.71,0,1.93,3,1.93,3,0Z" transform="translate(-42.42 -224.48)"/>
  </g>
  <circle cx="1012.08" cy="54.02" r="22" style="fill: #fff;stroke: #000;stroke-miterlimit: 10"/>
  <circle cx="1012.08" cy="54.02" r="13" style="fill: #42210b;stroke: #000;stroke-miterlimit: 10"/>
  <path d="M1144.77,317.78q13.11,7,25.88,14.55c1.9,1.13,3.92,2.19,5.73,3.46,3.28,2.31,4.49,3.86,4.58,7.94.08,3.32-.36,6,1,9.08.77,1.77,3.35.24,2.59-1.51-1.71-3.95.32-8.32-1.1-12.3-1.31-3.65-4.88-5.4-8-7.29q-14.32-8.68-29.16-16.52c-1.71-.9-3.22,1.69-1.51,2.59Z" transform="translate(-42.42 -224.48)" style="fill: #ff1d25"/>
  <path d="M1182.69,337.5a58.63,58.63,0,0,1,13.08-2.31c1.92-.11,1.93-3.11,0-3a61.75,61.75,0,0,0-13.88,2.42c-1.84.55-1.06,3.44.8,2.89Z" transform="translate(-42.42 -224.48)" style="fill: #ff1d25"/>
</svg>
